<?xml version="1.0" encoding="UTF-8"?>
<!-- Generator: Adobe Illustrator 27.6.1, SVG Export Plug-In . SVG Version: 6.00 Build 0)  -->
<svg xmlns="http://www.w3.org/2000/svg" xmlns:xlink="http://www.w3.org/1999/xlink" version="1.1" id="Layer_1" x="0px" y="0px" viewBox="0 0 400 178.2" style="enable-background:new 0 0 400 178.2;" xml:space="preserve">
<style type="text/css">
	.st0{fill:#FFFFFF;}
</style>
<g>
	<g>
		<path class="st0" d="M36.2,104.1c0.9,0,1.3,0.4,1.3,1.3v38.2c0,0.7-0.2,1.1-0.7,1.1c-0.1,0-0.2,0-0.3-0.1    c-0.7-0.2-1.2-0.4-1.5-0.6l-13.7-8.8c-0.5-0.3-0.7-0.2-0.7,0.3c0,1.5,0,2.8,0,3.7v3.7c0,1-0.5,1.5-1.6,1.5h-5h-5    c-0.9,0-1.3-0.4-1.3-1.3v-38c0-0.8,0.3-1.2,1-1.1c0.7,0.1,1.1,0.3,1.4,0.4l13.4,9.1c0.3,0.2,0.6,0.3,0.8,0.3    c0.3,0,0.5-0.3,0.5-0.9v-7.7c0-0.9,0.5-1.3,1.5-1.3c1.9,0,3.6,0,5.1,0C32.8,104.1,34.5,104.1,36.2,104.1z"></path>
		<path class="st0" d="M74.2,105.9L93,143c0.1,0.2,0.2,0.5,0.2,0.6c0,0.6-0.6,0.9-1.9,0.9h-8.1c-0.9,0-1.5-0.1-1.8-0.2    c-0.3-0.2-0.7-0.6-1.1-1.4c-0.6-1.1-1.6-1.7-2.9-1.6c-2.5,0-4.7,0-6.6,0c-2.2,0-4.3,0-6.5,0c-1.2,0-2,0.5-2.5,1.5    c-0.4,0.8-0.7,1.2-0.9,1.4c-0.3,0.1-0.9,0.2-1.8,0.2l-4.1,0c-0.9,0-2.3,0-4.1,0c-1.3,0-1.9-0.3-1.9-0.9c0-0.2,0.1-0.5,0.2-0.7    l18.6-36.9c0.7-1.3,1.7-2,3.2-2C72.5,103.8,73.5,104.5,74.2,105.9z M73,128.6c-0.3-0.6-0.8-1.6-1.4-2.8c-0.2-0.2-0.4-0.3-0.5-0.3    c-0.2,0-0.4,0.1-0.5,0.3c-0.3,0.6-0.8,1.6-1.4,2.8c-0.2,0.5-0.1,0.8,0.4,0.8h3.2c0.3,0,0.4-0.1,0.4-0.4    C73.1,128.9,73,128.8,73,128.6z"></path>
		<path class="st0" d="M116.3,104c0.9,0,1.3,0.4,1.3,1.3v24c0.2,1.4,0.3,2.3,0.4,2.5c0.3,0.7,1,1.1,2,1.1c1.2,0,1.9-0.6,2.2-1.8    l0.3-1.8v-24c0-0.3,0.1-0.6,0.4-0.9c0.3-0.3,0.6-0.4,0.9-0.4h10.3c0.3,0,0.6,0.1,0.9,0.4c0.3,0.3,0.4,0.6,0.4,0.9v24.2    c0,4.1-1.5,7.6-4.6,10.6c-3,3-6.6,4.4-10.7,4.4c-4.2,0-7.8-1.5-10.7-4.4c-3-2.9-4.5-6.5-4.5-10.7v-24.1c0-0.9,0.4-1.3,1.3-1.3    H116.3z"></path>
		<path class="st0" d="M148.3,104.2h27.5c1,0,1.6,0.4,1.6,1.2v9.6c0,0.8-0.5,1.2-1.6,1.2h-6.2c-0.7,0-1.1,0.4-1.1,1.3v25.8    c0,0.9-0.4,1.3-1.3,1.3H157c-0.9,0-1.3-0.4-1.3-1.3v-25.8c0-0.8-0.4-1.3-1.1-1.3h-6.3c-1,0-1.6-0.4-1.6-1.2v-9.6    C146.8,104.6,147.3,104.2,148.3,104.2z"></path>
		<path class="st0" d="M200.5,104.1c0.8,0,1.3,0.4,1.3,1.3v37.8c0,0.9-0.4,1.3-1.3,1.3h-10.3c-0.9,0-1.3-0.4-1.3-1.3v-37.8    c0-0.9,0.4-1.3,1.3-1.3H200.5z"></path>
		<path class="st0" d="M224.9,104.1c0.9,0,1.3,0.4,1.3,1.3v24.9c0,0.9,0.4,1.3,1.2,1.3H238c0.9,0,1.3,0.4,1.3,1.3v10.3    c0,0.9-0.4,1.3-1.3,1.3h-23.4c-0.9,0-1.3-0.4-1.3-1.3v-37.8c0-0.9,0.4-1.3,1.3-1.3H224.9z"></path>
		<path class="st0" d="M262.4,104c0.9,0,1.3,0.4,1.3,1.3v24c0.2,1.4,0.3,2.3,0.4,2.5c0.3,0.7,1,1.1,2,1.1c1.2,0,1.9-0.6,2.2-1.8    l0.3-1.8v-24c0-0.3,0.1-0.6,0.4-0.9c0.3-0.3,0.6-0.4,0.9-0.4h10.3c0.3,0,0.6,0.1,0.9,0.4c0.3,0.3,0.4,0.6,0.4,0.9v24.2    c0,4.1-1.5,7.6-4.6,10.6c-3,3-6.6,4.4-10.7,4.4c-4.2,0-7.8-1.5-10.7-4.4c-3-2.9-4.5-6.5-4.5-10.7v-24.1c0-0.9,0.4-1.3,1.3-1.3    H262.4z"></path>
		<path class="st0" d="M322.1,124.6c2.7,2.2,4,4.8,4,7.8c0,3.8-1.9,6.8-5.7,9.1c-3.3,2-6.9,2.9-10.9,2.9c-2.9,0-5.5-0.5-8.1-1.5    c-2.8-1.1-5-2.7-6.5-4.8c-0.3-0.4-0.3-0.8-0.1-1.1c0.2-0.3,0.5-0.6,0.8-0.8l9-4.2c0.5-0.2,1.2-0.1,2.3,0.2    c1.3,0.5,2.1,0.7,2.6,0.7c0.8,0,1.6-0.1,2.3-0.4c1-0.4,1.5-0.9,1.5-1.6c0-1.4-1.3-2-3.8-2c-1.6,0-3.1-0.1-4.6-0.4    c-3.1-0.6-5.7-1.9-8-4c-2.7-2.4-4-5.1-4-8.1c0-3.8,1.9-7,5.6-9.3c3.2-2.1,6.9-3.1,11-3.1c3.2,0,6.2,0.6,8.9,1.9    c3.1,1.5,5.3,3.5,6.6,6.1c0.1,0.3,0.2,0.5,0.2,0.8c0,0.6-0.4,0.9-1.2,1.1l-9.4,3.5c-0.7,0.3-1.2,0.3-1.4,0.1    c-0.2-0.1-0.4-0.3-0.8-0.6c-0.7-0.5-1.7-0.8-2.9-0.8c-0.8,0-1.6,0.1-2.3,0.4c-1,0.4-1.5,0.9-1.5,1.6c0,0.7,0.5,1.2,1.5,1.6    c0.7,0.3,1.5,0.4,2.3,0.4c1.9,0,4.2,0.4,6.6,1.3C318.7,122.5,320.7,123.5,322.1,124.6z"></path>
	</g>
	<g>
		<path class="st0" d="M17,167.4c0,1.3-0.2,2.4-0.6,3.4c-0.5,1.4-1.3,2-2.3,2H8v-1.5h4.7c0.7,0,1.2-0.4,1.5-1.3    c0.3-0.7,0.4-1.4,0.4-2.3c0-1.2-0.2-2-0.5-2.5c-0.3-0.4-0.8-0.6-1.5-0.7c0.1,0-0.7,0-2.3,0c-1,0-1.7-0.6-2.2-1.8    c-0.4-0.9-0.6-2-0.6-3.2c0-1.2,0.2-2.3,0.6-3.2c0.5-1.2,1.3-1.9,2.2-1.9h5.5v1.5h-4.1c-0.6,0-1.1,0.4-1.4,1.1    c-0.3,0.6-0.4,1.3-0.4,2.1c0,0.8,0.1,1.4,0.4,2c0.3,0.7,0.8,1.1,1.4,1.1h2.7c0.9,0,1.7,0.6,2.2,1.8C16.8,165.1,17,166.2,17,167.4z    "></path>
		<path class="st0" d="M63.2,172.9h-2.5v-8.4h-5.1v8.4h-2.5v-18.3h2.5v8.4h5.1v-8.4h2.5V172.9z"></path>
		<path class="st0" d="M101.8,172.9h-2.5v-18.3h2.5V172.9z"></path>
		<path class="st0" d="M147.9,160.1c0,1.3-0.2,2.4-0.6,3.4c-0.5,1.3-1.3,2-2.3,2h-3.6V164h2.3c0.6,0,1.1-0.5,1.4-1.5    c0.2-0.7,0.3-1.5,0.3-2.4c0-0.9-0.1-1.7-0.3-2.4c-0.3-1-0.8-1.5-1.4-1.5h-3.3v16.8h-2.5v-18.3h7.1c1,0,1.7,0.7,2.3,2.1    C147.7,157.7,147.9,158.9,147.9,160.1z"></path>
		<path class="st0" d="M193.9,160.1c0,1.3-0.2,2.4-0.5,3.4c-0.5,1.3-1.3,2-2.3,2h-3.6V164h2.3c0.6,0,1.1-0.5,1.4-1.5    c0.2-0.7,0.3-1.5,0.3-2.4c0-0.9-0.1-1.7-0.3-2.4c-0.3-1-0.8-1.5-1.4-1.5h-3.3v16.8H184v-18.3h7.1c1,0,1.7,0.7,2.3,2.1    C193.7,157.7,193.9,158.9,193.9,160.1z"></path>
		<path class="st0" d="M232.5,172.9H230v-18.3h2.5V172.9z"></path>
		<path class="st0" d="M278.6,172.9h-3.2l-4.9-12.8v12.8h-1.9v-18.3h2.7l5.3,14.3v-14.3h2V172.9z"></path>
		<path class="st0" d="M324.4,172.9h-6.8c-0.9,0-1.7-0.6-2.2-1.7c-0.4-0.9-0.6-1.9-0.6-3.1v-8.7c0-1.2,0.2-2.2,0.6-3.1    c0.5-1.1,1.3-1.7,2.2-1.7h5.7v1.5h-4.3c-0.6,0-1.1,0.4-1.4,1.2c-0.3,0.6-0.4,1.3-0.4,2.1v8.7c0,0.8,0.1,1.5,0.4,2    c0.3,0.8,0.8,1.2,1.4,1.2h3.2v-6.9h-3.6v-1.5h5.9V172.9z"></path>
	</g>
	<g>
		<path class="st0" d="M392.6,37.8c0,0-61.6,27.9-67.3,60.6h-34.5c1.1-1.6,16.1-23.1,32.6-32.6c0,0-40.7,6.5-66.9,32.6h-55.2    C201.4,98.3,261.9,37.8,392.6,37.8z"></path>
		<path class="st0" d="M198.9,60.5c8.8-8.8,12.8-11.1,12.8-11.1V23.8c0,0,1.7-14.9,28.2-14.9l4.3,29.9c0,0,32.9-21.8,32.9,12.4    c0,0-59,21.3-80.3,47.2C196.8,98.3,190.1,69.3,198.9,60.5z"></path>
	</g>
</g>
</svg>
