<svg xmlns="http://www.w3.org/2000/svg" xmlns:xlink="http://www.w3.org/1999/xlink" width="120" height="120" viewBox="0 0 120 120"><defs><clipPath id="b"><rect width="120" height="120"></rect></clipPath></defs><g id="a" clip-path="url(#b)"><rect width="120" height="120" fill="none"></rect><g transform="translate(-942.358 -650.127)"><g transform="translate(997.285 693.561)"><circle cx="7.397" cy="7.397" r="7.397" transform="translate(8.269)" fill="none" stroke="#ebebeb" stroke-miterlimit="10" stroke-width="1.6"></circle><path d="M1030.87,738.027v-12.2a7.352,7.352,0,0,0-7.351-7.352h-16.628a7.351,7.351,0,0,0-7.351,7.352v12.2Z" transform="translate(-999.539 -697.508)" fill="none" stroke="#ebebeb" stroke-miterlimit="10" stroke-width="1.6"></path></g><path d="M1029.4,694.433q-.005-3.379,0-6.757c0-.446-.1-.592-.57-.638a48.083,48.083,0,0,1-25.828-10.6c-.476-.38-.741-.433-1.256-.019a48.166,48.166,0,0,1-25.408,10.61c-.959.1-.959.1-.959,1.068v12.4h-.022q0,5.223,0,10.447a28.5,28.5,0,0,0,1.145,8.378c3.964,12.925,12.508,21.271,25.378,25.261a1.76,1.76,0,0,0,1.053-.034,36.334,36.334,0,0,0,13.865-7.392" transform="translate(0 0)" fill="none" stroke="#ebebeb" stroke-linejoin="round" stroke-width="1.6"></path><line x2="21.567" transform="translate(1002.37 700.957)" fill="none" stroke="#ebebeb" stroke-linejoin="round" stroke-width="1.6"></line><line y1="19.126" transform="translate(1020.348 714.544)" fill="none" stroke="#ebebeb" stroke-linejoin="round" stroke-width="1.6"></line><line y1="19.126" transform="translate(1005.554 714.741)" fill="none" stroke="#ebebeb" stroke-linejoin="round" stroke-width="1.6"></line></g></g></svg>