<svg xmlns="http://www.w3.org/2000/svg" xmlns:xlink="http://www.w3.org/1999/xlink" width="120" height="120" viewBox="0 0 120 120"><defs><clipPath id="b"><rect width="120" height="120"></rect></clipPath></defs><g id="a" clip-path="url(#b)"><rect width="120" height="120" fill="none"></rect><g transform="translate(-802.961 -582.248)"><path d="M19.857,0h1.9A19.857,19.857,0,0,1,41.609,19.857V36.912a0,0,0,0,1,0,0H0a0,0,0,0,1,0,0V19.857A19.857,19.857,0,0,1,19.857,0Z" transform="translate(842.469 624.089)" fill="none" stroke="#dbdcdd" stroke-linecap="square" stroke-miterlimit="10" stroke-width="1.6"></path><path d="M847.318,640.742a16.409,16.409,0,0,1,12.565-11.95" transform="translate(0.876 0.885)" fill="none" stroke="#dbdcdd" stroke-linecap="square" stroke-miterlimit="10" stroke-width="1.6"></path><rect width="52.31" height="13.537" transform="translate(837.118 661.001)" fill="none" stroke="#dbdcdd" stroke-linecap="square" stroke-miterlimit="10" stroke-width="1.6"></rect><line y1="8.156" x2="0.124" transform="translate(863.211 610.248)" fill="none" stroke="#dbdcdd" stroke-linecap="square" stroke-miterlimit="10" stroke-width="1.6"></line><line x1="5.705" y1="5.83" transform="translate(840.236 619.584)" fill="none" stroke="#dbdcdd" stroke-linecap="square" stroke-miterlimit="10" stroke-width="1.6"></line><line y1="5.923" x2="5.609" transform="translate(881.229 619.868)" fill="none" stroke="#dbdcdd" stroke-linecap="square" stroke-miterlimit="10" stroke-width="1.6"></line><line x1="8.157" transform="translate(889.428 641.627)" fill="none" stroke="#dbdcdd" stroke-linecap="square" stroke-miterlimit="10" stroke-width="1.6"></line><line x1="8.157" transform="translate(828.961 641.627)" fill="none" stroke="#dbdcdd" stroke-linecap="square" stroke-miterlimit="10" stroke-width="1.6"></line></g></g></svg>