<svg xmlns="http://www.w3.org/2000/svg" xmlns:xlink="http://www.w3.org/1999/xlink" width="120" height="120" viewBox="0 0 120 120"><defs><clipPath id="b"><rect width="120" height="120"></rect></clipPath></defs><g id="a" clip-path="url(#b)"><rect width="120" height="120" fill="none"></rect><g transform="translate(-1226.095 -546.363)"><path d="M1278.823,596.952V581.826a4.463,4.463,0,0,1,4.464-4.463h34.327a4.463,4.463,0,0,1,4.463,4.463v22.123a4.463,4.463,0,0,1-4.463,4.463h-8.583l-9.155,7.986v-7.986h-6.527" fill="none" stroke="#eaeaea" stroke-miterlimit="10" stroke-width="1.6"></path><line x1="25.897" transform="translate(1286.927 589.316)" fill="none" stroke="#eaeaea" stroke-miterlimit="10" stroke-width="1.6"></line><line x1="15.508" transform="translate(1297.317 596.723)" fill="none" stroke="#eaeaea" stroke-miterlimit="10" stroke-width="1.6"></line><path d="M1288.885,596.952h-34.327a4.463,4.463,0,0,0-4.463,4.463v22.123a4.463,4.463,0,0,0,4.463,4.463l14.787.084,11.078,7.9V628h8.462a4.464,4.464,0,0,0,4.464-4.463V601.415A4.464,4.464,0,0,0,1288.885,596.952Z" fill="none" stroke="#eaeaea" stroke-miterlimit="10" stroke-width="1.6"></path><line x2="25.897" transform="translate(1259.348 608.905)" fill="none" stroke="#eaeaea" stroke-miterlimit="10" stroke-width="1.6"></line><line x2="25.897" transform="translate(1259.348 616.312)" fill="none" stroke="#eaeaea" stroke-miterlimit="10" stroke-width="1.6"></line></g></g></svg>